<?xml version="1.0" standalone="no"?>
<!DOCTYPE svg PUBLIC "-//W3C//DTD SVG 20010904//EN"
        "http://www.w3.org/TR/2001/REC-SVG-20010904/DTD/svg10.dtd">
<svg version="1.0" xmlns="http://www.w3.org/2000/svg"
     width="260.000000pt" height="260.000000pt" viewBox="0 0 260.000000 260.000000"
     preserveAspectRatio="xMidYMid meet">
    <metadata>
        Created by potrace 1.11, written by Peter Selinger 2001-2013
    </metadata>
    <g transform="translate(0.000000,260.000000) scale(0.100000,-0.100000)"
       fill="#000000" stroke="none">
        <path d="M175 2590 c3 -5 15 -10 26 -10 10 0 19 5 19 10 0 6 -12 10 -26 10
-14 0 -23 -4 -19 -10z"/>
        <path d="M575 2548 c13 -136 10 -314 -8 -423 -11 -63 -19 -150 -22 -234 -2
-48 -9 -133 -15 -189 -7 -56 -10 -108 -7 -116 9 -24 -111 -28 -145 -4 -15 10
-31 18 -36 18 -5 0 -22 6 -38 14 -30 15 -53 19 -91 17 -20 -1 -23 -7 -23 -40
0 -48 23 -105 50 -124 11 -7 23 -28 26 -46 l7 -33 -59 2 c-110 3 -101 31 -96
-298 2 -158 5 -288 7 -290 6 -6 61 24 73 40 14 19 46 13 38 -8 -3 -7 3 -16 13
-19 10 -3 18 -13 17 -23 0 -97 4 -110 49 -164 53 -65 76 -122 63 -159 -7 -21
-20 -29 -71 -44 -34 -9 -87 -25 -117 -34 l-55 -18 -5 -144 c-5 -134 -6 -144
-24 -141 -10 2 -23 -2 -27 -10 -7 -10 -9 -10 -9 0 0 10 -5 10 -20 2 -28 -15
-28 -8 -38 310 l-9 275 -1 -332 -2 -333 92 0 c73 0 101 4 136 21 35 17 64 22
147 23 95 1 105 -1 123 -21 19 -22 25 -23 211 -23 l191 0 0 33 c0 42 15 57 56
57 18 0 34 5 36 12 3 8 19 11 42 10 36 -3 254 25 396 49 36 6 74 10 84 8 30
-6 30 -26 -1 -34 -15 -3 -30 -11 -33 -16 -4 -5 -46 -19 -96 -30 -49 -12 -100
-28 -114 -34 -14 -7 -54 -19 -90 -25 -36 -7 -69 -17 -75 -21 -5 -5 195 -9 458
-9 257 0 467 4 467 8 0 4 -6 14 -12 20 -9 9 -10 15 -2 20 7 4 18 36 26 72 8
36 19 64 24 64 17 -2 34 -49 34 -99 1 -50 17 -85 39 -85 6 0 11 6 11 14 0 8 6
16 14 19 8 3 16 18 18 34 2 21 9 29 26 31 40 6 82 -48 49 -62 -8 -3 -6 -9 7
-20 16 -13 50 -16 178 -16 l158 0 0 670 c0 369 -3 670 -8 670 -4 0 -23 -14
-41 -30 -18 -17 -46 -34 -62 -37 -36 -7 -38 -30 -4 -45 13 -6 22 -15 19 -19
-2 -4 9 -15 26 -24 17 -9 28 -21 24 -26 -6 -10 -34 -8 -99 7 -11 2 -2 -5 20
-15 24 -12 33 -20 22 -20 -14 -1 -17 -6 -11 -23 4 -13 12 -26 18 -30 6 -5 0
-8 -14 -8 l-25 -1 25 -15 25 -15 -32 6 c-33 7 -62 -2 -47 -14 5 -3 24 -23 42
-44 28 -34 31 -43 26 -80 -10 -73 -23 -103 -52 -118 -15 -7 -38 -21 -51 -31
-13 -10 -32 -18 -42 -18 -33 0 -21 -19 29 -45 28 -15 37 -24 22 -21 -14 3 -36
8 -50 11 -14 3 9 -12 50 -34 41 -22 72 -40 68 -41 -19 -1 -215 74 -225 87 -7
9 -13 11 -18 4 -3 -6 10 -20 29 -32 44 -26 45 -33 6 -27 -38 6 -38 2 1 -17 50
-26 26 -29 -45 -5 -64 21 -77 32 -56 45 6 4 8 10 5 15 -3 4 6 11 19 14 22 5
23 10 28 118 5 101 4 116 -14 140 -11 16 -15 28 -9 28 28 0 41 33 42 108 0 42
6 100 13 127 l11 50 50 -2 c28 -1 39 1 25 3 -50 10 -54 13 -39 31 11 13 11 17
1 20 -6 3 -12 15 -12 28 0 13 -4 27 -10 30 -13 8 -13 112 0 120 6 4 18 24 27
46 8 21 21 39 28 39 8 0 20 6 27 13 26 25 88 58 98 52 5 -3 18 -1 27 5 15 10
15 11 1 6 -9 -2 -24 2 -35 9 -14 11 -15 14 -3 15 29 0 95 -22 123 -42 l27 -19
0 490 0 491 -679 0 -679 0 1 -54 c1 -30 5 -58 10 -62 4 -4 7 -41 8 -83 0 -66
15 -179 18 -143 0 7 10 22 21 34 15 17 22 19 33 9 8 -6 22 -9 31 -5 9 4 16 1
16 -6 0 -8 12 -11 34 -8 19 2 33 1 30 -3 -7 -12 7 -39 18 -33 5 3 18 -2 28
-11 10 -9 24 -14 29 -10 6 3 14 -1 17 -9 3 -9 12 -16 20 -16 7 0 28 -9 46 -20
22 -13 27 -20 16 -20 -10 0 -18 -4 -18 -8 0 -5 13 -7 28 -4 18 2 35 -2 45 -12
10 -10 18 -12 22 -6 4 6 17 1 34 -12 28 -23 28 -23 8 -40 -11 -10 -26 -18 -34
-18 -7 0 -13 -4 -13 -10 0 -5 -5 -10 -12 -10 -23 0 -170 -104 -211 -150 -57
-63 -79 -140 -84 -290 -3 -122 -11 -140 -56 -140 -27 0 -104 -39 -133 -68 -22
-23 -24 -23 -30 -6 -16 50 -16 50 -24 29 -5 -11 -9 -30 -9 -41 -1 -17 4 -20
22 -17 15 3 32 -5 52 -25 24 -24 42 -31 93 -37 53 -6 66 -4 83 11 10 9 19 23
19 31 0 7 5 13 10 13 6 0 21 12 33 26 l22 26 26 -21 c14 -11 38 -22 52 -25 15
-2 45 -15 67 -27 39 -22 40 -23 22 -43 -10 -12 -23 -32 -29 -46 -6 -14 -21
-46 -33 -72 -18 -40 -19 -50 -8 -67 7 -12 18 -21 24 -21 6 0 19 -9 29 -20 18
-19 17 -20 -6 -21 -15 0 -18 -3 -9 -6 33 -12 50 -36 43 -61 -5 -21 -3 -24 11
-19 24 9 54 -9 58 -35 2 -12 9 -24 17 -26 11 -4 13 4 7 37 -10 64 -10 65 -23
78 -17 19 -22 16 -35 -14 l-11 -28 -7 25 c-13 41 -11 77 5 90 12 10 15 10 15
-4 0 -30 16 -16 38 32 23 51 29 92 12 92 -5 0 -17 16 -26 35 -9 19 -23 35 -30
35 -8 0 -14 5 -14 10 0 6 5 10 11 10 6 0 26 16 45 36 19 20 44 38 56 39 36 4
38 4 38 15 0 6 -9 10 -20 10 -11 0 -19 3 -19 8 1 4 1 19 0 35 -1 20 -6 27 -21
27 -11 0 -23 7 -26 15 -4 8 -15 15 -26 15 -10 0 -16 5 -13 10 3 6 31 10 60 10
55 0 79 -17 68 -47 -4 -12 31 -28 45 -19 4 2 14 1 22 -5 13 -7 12 -9 -2 -9
-10 0 -22 -9 -28 -20 -9 -16 -6 -23 12 -37 73 -58 77 -66 78 -144 1 -41 3
-117 4 -169 3 -122 -16 -334 -32 -353 -7 -8 -21 -17 -31 -20 -19 -5 -55 16
-44 26 3 4 -8 2 -26 -3 -23 -6 -31 -5 -31 4 0 8 -6 19 -14 25 -21 17 -29 -1
-28 -65 0 -30 -4 -54 -9 -54 -6 0 -7 -5 -4 -11 4 -5 1 -24 -6 -41 -11 -26 -16
-29 -42 -24 -16 3 -42 6 -58 6 -26 0 -28 4 -39 56 -8 36 -18 57 -28 61 -40 12
-62 28 -94 67 -32 38 -34 45 -29 86 4 27 12 44 19 43 6 -2 16 6 22 17 7 14 7
20 0 20 -13 0 -13 36 0 61 9 15 7 21 -5 25 -20 8 -83 -40 -95 -72 -11 -27 -53
-55 -120 -81 -24 -10 -53 -26 -63 -36 -19 -19 -18 -20 39 -76 33 -31 83 -76
112 -100 28 -24 52 -47 52 -51 0 -5 -19 -11 -42 -15 -24 -4 -52 -14 -62 -21
-18 -12 -18 -14 -3 -20 22 -8 23 -64 2 -64 -8 0 -15 -7 -15 -15 0 -8 -7 -15
-15 -15 -19 0 -19 -9 1 -32 13 -13 14 -21 6 -31 -6 -7 -9 -22 -6 -34 7 -26
-22 -73 -45 -73 -14 -1 -14 -2 2 -11 16 -9 14 -13 -20 -30 -64 -33 -121 -20
-61 14 l33 18 -42 -6 c-26 -3 -51 0 -63 7 -19 12 -19 13 3 25 20 12 20 13 2
11 -12 -2 -19 2 -17 10 1 7 -6 21 -17 30 -22 20 -50 104 -47 147 1 22 6 30 19
29 9 -1 17 2 17 7 0 5 -4 9 -9 9 -25 0 -41 34 -43 88 l-1 57 -6 -50 c-5 -41
-10 -51 -27 -53 -30 -4 -64 67 -64 136 0 28 -4 53 -9 56 -5 3 -8 32 -6 63 1
32 3 87 4 122 1 56 3 62 16 51 22 -19 38 0 29 35 l-7 28 -16 -22 c-16 -21 -17
-15 -18 126 -1 81 2 162 7 178 5 17 12 46 15 65 4 28 12 39 38 50 l32 14 -37
3 -38 4 0 98 c0 54 3 139 7 190 5 77 10 95 30 117 12 14 23 32 23 41 0 9 3 14
6 10 8 -7 34 17 34 31 0 6 3 12 8 14 4 2 17 17 29 35 22 30 23 44 29 317 l7
286 -241 0 -242 0 5 -52z m990 -775 l-6 -26 -15 28 c-8 15 -12 30 -9 33 3 3 5
-1 5 -9 1 -9 5 -7 12 6 14 25 23 5 13 -32z m675 21 c0 -8 -8 -23 -17 -34 -34
-39 -43 -98 -37 -227 6 -138 3 -146 -58 -123 -18 7 -51 14 -73 16 -22 1 -53 8
-69 13 -24 10 -27 15 -21 38 6 27 6 27 -13 10 -16 -14 -24 -16 -44 -7 -13 6
-30 21 -38 33 -11 19 -11 20 1 10 11 -9 18 -8 33 2 10 8 15 18 11 24 -3 6 0 9
8 5 8 -3 18 -1 22 5 3 6 1 11 -6 11 -7 0 -10 2 -7 5 3 3 12 3 21 -1 12 -4 15
-14 10 -35 -3 -16 -1 -29 4 -29 6 0 16 26 22 58 6 32 20 75 32 96 22 41 76 96
95 96 7 0 15 7 18 16 3 8 9 13 14 10 4 -2 18 4 31 13 26 20 61 17 61 -5z
m-616 -2 c2 -4 1 -13 -3 -20 -4 -8 -11 -5 -19 8 -10 16 -10 20 2 20 8 0 17 -4
20 -8z m-138 -70 c-18 -16 -18 -16 -6 6 6 13 14 21 18 18 3 -4 -2 -14 -12 -24z
m815 -135 c-8 -8 -11 -5 -11 9 0 27 14 41 18 19 2 -9 -1 -22 -7 -28z m-837
-36 c-3 -34 -11 -61 -16 -61 -10 0 -5 62 8 108 11 40 15 16 8 -47z m-597 -63
c-2 -18 -4 -6 -4 27 0 33 2 48 4 33 2 -15 2 -42 0 -60z m649 46 c-3 -7 -1 -16
5 -20 6 -4 6 -11 -2 -20 -15 -18 -27 -10 -24 18 1 13 3 29 4 36 0 7 6 10 12 7
6 -4 8 -13 5 -21z m64 -14 c0 -5 -5 -10 -11 -10 -5 0 -7 5 -4 10 3 6 8 10 11
10 2 0 4 -4 4 -10z m-1165 -111 c0 -38 -3 -44 -22 -47 -17 -2 -26 -14 -35 -44
l-12 -40 -15 40 c-14 35 -19 39 -35 30 -16 -9 -17 -7 -11 13 4 13 14 40 23 60
16 34 19 36 62 34 l45 -2 0 -44z m68 -77 c23 -20 22 -30 -8 -58 -14 -13 -25
-28 -25 -35 0 -7 8 -5 20 6 19 18 20 17 20 -4 0 -23 -29 -83 -42 -89 -11 -5
-10 -42 1 -42 5 0 11 -9 14 -19 5 -20 -29 -61 -50 -61 -6 0 -13 -6 -16 -14 -8
-21 -51 -47 -84 -51 -16 -1 -40 6 -56 17 -50 36 -50 47 -1 143 29 57 43 94 38
107 -5 16 -2 19 13 16 10 -2 23 3 30 12 11 13 12 12 13 -5 1 -20 22 -55 33
-55 4 0 4 13 1 29 -3 16 -1 31 4 35 6 3 8 16 4 28 -3 14 -2 19 6 14 7 -4 12
-14 12 -22 0 -8 9 -14 20 -14 15 0 20 7 20 24 0 14 -4 28 -10 31 -5 3 -10 10
-10 14 0 13 34 9 53 -7z m1707 -217 l0 -120 -25 40 -24 40 -13 -32 c-16 -44
-29 -42 -16 1 8 24 8 47 0 77 -10 39 -8 47 15 90 23 41 29 45 45 35 16 -9 18
-26 18 -131z m-1680 -45 c0 -5 -4 -10 -10 -10 -5 0 -10 5 -10 10 0 6 5 10 10
10 6 0 10 -4 10 -10z m5 -118 c-5 -13 -8 -14 -15 -3 -5 9 -3 22 3 33 10 16 12
16 15 3 2 -9 1 -24 -3 -33z m1587 29 c-6 -4 -16 -34 -22 -67 -18 -104 -42
-209 -53 -221 -31 -40 -36 50 -7 116 11 24 20 56 20 72 0 18 5 29 14 29 9 0
12 8 8 26 -4 20 1 31 19 45 13 10 26 15 29 13 2 -3 -1 -8 -8 -13z m288 -372
c52 -27 23 -22 -35 7 -27 13 -39 21 -25 18 14 -4 41 -15 60 -25z m-190 1 c18
-12 2 -12 -25 0 -13 6 -15 9 -5 9 8 0 22 -4 30 -9z m-1357 -82 c3 -21 1 -40
-5 -44 -20 -13 -29 14 -22 67 8 56 16 49 27 -23z m1547 40 c10 -6 6 -7 -15 -3
-16 4 -34 11 -40 17 -12 12 31 1 55 -14z m-420 -336 c0 -77 -17 -112 -56 -112
-18 0 -24 5 -24 22 0 26 60 158 71 158 5 0 9 -30 9 -68z m131 -8 c-35 -15 -48
-13 -36 5 3 6 21 11 38 11 l32 -1 -34 -15z"/>
        <path d="M390 1094 c0 -8 5 -12 10 -9 6 4 8 11 5 16 -9 14 -15 11 -15 -7z"/>
        <path d="M2155 1120 c-3 -5 -1 -10 4 -10 6 0 11 5 11 10 0 6 -2 10 -4 10 -3 0
-8 -4 -11 -10z"/>
        <path d="M1084 2353 c4 -136 9 -249 11 -252 3 -2 6 2 6 10 1 8 3 24 4 37 1 12
5 119 9 237 l8 215 -23 0 -22 0 7 -247z"/>
        <path d="M1170 2573 c0 -22 2 -25 10 -13 5 8 17 15 26 15 10 0 19 6 21 13 3 8
-6 12 -26 12 -27 0 -31 -3 -31 -27z"/>
        <path d="M2398 1564 c-3 -3 1 -19 9 -35 12 -23 12 -36 4 -61 -9 -26 -8 -35 5
-50 22 -24 26 -23 58 8 17 18 26 37 26 59 0 22 -9 41 -26 59 -24 24 -63 34
-76 20z"/>
        <path d="M1010 1362 c0 -30 44 -107 63 -110 13 -3 17 3 17 26 0 40 -9 62 -26
62 -8 0 -23 9 -34 20 -18 18 -20 19 -20 2z"/>
        <path d="M2405 1270 l-30 -8 27 -1 c15 0 30 4 33 9 3 6 5 9 3 9 -2 -1 -16 -5
-33 -9z"/>
        <path d="M980 1025 c5 -6 8 -14 5 -17 -3 -2 -1 -19 4 -36 6 -20 6 -32 0 -32
-5 0 -9 -25 -9 -55 0 -52 1 -54 23 -46 29 11 33 41 13 102 -12 37 -14 54 -6
69 12 23 13 22 -18 25 -16 2 -20 -1 -12 -10z"/>
        <path d="M970 761 c0 -25 6 -27 13 -6 4 8 2 17 -3 20 -6 4 -10 -3 -10 -14z"/>
        <path d="M2270 710 c0 -5 7 -10 16 -10 8 0 12 5 9 10 -3 6 -10 10 -16 10 -5 0
-9 -4 -9 -10z"/>
        <path d="M1460 150 c0 -5 9 -10 21 -10 11 0 17 5 14 10 -3 6 -13 10 -21 10 -8
0 -14 -4 -14 -10z"/>
    </g>
</svg>
